# xmcd
#
# Track frame offsets:
#        150
#        23638
#        38925
#        62225
#        92800
#        138150
#        147450
#        173063
#        186650
#        212525
#        224250
#        244838
#
# Disc length: 3878 seconds
#
# Revision: 0
# Processed by: cddbd v1.5.1PL0 Copyright (c) Steve Scherf et al.
# Submitted via: ExactAudioCopy v0.95a5
#
DISCID=b40f240c
DTITLE=Various Artist - Piano Dreams - Rain Drops
DYEAR=1900
DGENRE=Classical
TTITLE0=Barcarole From "The Saisons"
TTITLE1=Duetto in F Major
TTITLE2=Piano Sonata in F Major K.332 - II. Adagio
TTITLE3=Impromptu in A Flat D.899 No.4
TTITLE4=Piano Concerto No.3 in C Minor - II. Largo
TTITLE5=Einsame Blumen
TTITLE6=Prelude Op.28 No.15 in D Flat "Rain Drops"
TTITLE7=Intermezzo in A Major Op.76 No.7
TTITLE8=Paganini Etude No.3 "La Campanella"
TTITLE9=Prelude Op.28 No.2 in B Flat Major
TTITLE10=Nocturne For The Left Hand
TTITLE11=Piano Concerto No.1 in E Minor Op.11 - II. Ronanze+Larghetto
EXTD=
EXTT0=
EXTT1=
EXTT2=
EXTT3=
EXTT4=
EXTT5=
EXTT6=
EXTT7=
EXTT8=
EXTT9=
EXTT10=
EXTT11=
PLAYORDER=
